<svg xmlns="http://www.w3.org/2000/svg" viewBox="0 0 48 48"><defs><style>.cls-1{fill:#2d734d;}.cls-2{fill:#61b461;}.cls-3{fill:#2f2852;}.cls-4{fill:#6fb8d5;}.cls-5{fill:#b3c4bd;}</style></defs><title>favicon</title><g id="Modo_de_aislamiento" data-name="Modo de aislamiento"><g id="IMAGO"><path class="cls-1" d="M44.79,24.14c0,9.46-6.59,17.43-15.33,20.81C20.27,48.43,13.73,45.28,11,43a24.35,24.35,0,0,0,20.2-.27c.53-.24.34-.52.18-.85a8.14,8.14,0,0,1,2.63-2c3.36-2.89,5.9-5.51,7.51-9.49a8.14,8.14,0,0,0,.56-2.22,36.68,36.68,0,0,0-1.26-12.45C35.92,6.16,29.84-1.19,12,3.68,24.12-4.7,44.79,3.94,44.79,24.14Z"/><path class="cls-2" d="M34.05,39.9a11.11,11.11,0,0,1-2.63,2c-.68-.28-1.13.16-1.6.51a3.93,3.93,0,0,1-2.45,1.06,28,28,0,0,1,2.1-2.59C33.85,37,36,32.19,35.32,26.25a5.85,5.85,0,0,0-1-3.41,1.16,1.16,0,0,1-.2-.95c2.14,1,2.56,1.48,3,3.58.22.16.09.42.17.62a15,15,0,0,1-2.92,13.07C34.16,39.35,33.65,39.49,34.05,39.9Z"/><path class="cls-2" d="M37.23,26.09c-.22-.16-.17-.4-.17-.62a21,21,0,0,0,.11-5.31,1.16,1.16,0,0,0-1.27-1,7.5,7.5,0,0,0-2.44.34c-1.29.43-2.59.84-3.9,0a3.44,3.44,0,0,0-1.76-.24,3.84,3.84,0,0,1-3.59-4.88c.08-.33.15-.71.5-.79.75-.19,1.17-.47.84-1.35-.12-.29.2-.46.52-.32,2.25,1,4.51,1.95,6.75,2.94a.64.64,0,0,1,.28.78c-.07.28-.39.13-.6.11-1.26-.11-2.52-.2-3.76-.37a5.86,5.86,0,0,1-3-1.33c-.86,2.33.73,4.54,3.36,4.73a13,13,0,0,0,6.42-1,16.06,16.06,0,0,1,1.69-.59c.81.13.71.92,1,1.41C38.54,21.12,38.9,23.74,37.23,26.09Z"/><path class="cls-2" d="M9.52,20.6c-4,5.23-2,15.34,3.7,19.79.79.61,1.6,1.2,2.44,1.73A.76.76,0,0,1,16,43.21c-.23.5-.63.25-.92.06-6-3.71-9.37-7.69-9.12-15.36A8.75,8.75,0,0,1,9.52,20.6Z"/><path class="cls-3" d="M11.91,18.59c.93-.48,1.75-.1,2.56-.07,1.32.05,1.52-.07,1.88-1.32A2.43,2.43,0,0,1,17,16.12c1.33-1.31,1.17-2-.57-2.72-.17-.07-.4-.05-.57-.48.87,0,1.65,0,2.42,0a1.92,1.92,0,0,0,2.13-1.28c.17-.5.4-.41.74-.23,2,1.07,2.37.63,2-1.55a3.84,3.84,0,0,1,.42-2.1c.31-.77.57-1.56.85-2.34a.68.68,0,0,1,1-.43c.39.19,0,.54-.07.77A14,14,0,0,0,24.08,11c-.1,1.36-.63,1.93-2,2a2,2,0,0,0-1.73,1.05c-1.27,1.74-2.7,3.36-4.1,5a2.16,2.16,0,0,1-2.55.55A7,7,0,0,1,11.91,18.59Z"/><path class="cls-4" d="M30,27.82a51.21,51.21,0,0,1-2.66,5.71c-1.24,2-3.45,2.15-5.54,1.89a3.92,3.92,0,0,1-3.4-3.33,1.35,1.35,0,0,0-1.05-1.2c-2.28-.37-3.25-2-3.79-4a3.61,3.61,0,0,1-.16-1.12L15,28a6.31,6.31,0,0,0,3.22,2.4,1.37,1.37,0,0,1,1.09,1.25c.08.78.26,1.35,1.3,1.37a6.12,6.12,0,0,1,1.95.7A3.17,3.17,0,0,0,27,32.06c.42-.79.77-1.61,1.15-2.43A3.59,3.59,0,0,1,30,27.82Z"/><path class="cls-2" d="M27.3,4.2A2.13,2.13,0,0,1,28.42,7a9.15,9.15,0,0,1-.62,1.57c-.22.47-.73,1-.06,1.38s1.3.87,2.1.3c.32-.23.51-.81,1.06-.49a.89.89,0,0,1,.37,1c-.06.6-.48.84-1,1-1.44.37-2.83.44-4-.75a1.63,1.63,0,0,1-.23-2.25c.26-.38.57-.73.86-1.1A2.78,2.78,0,0,0,27.3,4.2Z"/><path class="cls-2" d="M5.88,18.14c-1.36-2.36-1.09-7.2.56-9.2A5.08,5.08,0,0,1,8.6,7.58a.77.77,0,0,1,1,.41c.15.5-.44.38-.68.47a3,3,0,0,0-2.25,3.16,5.08,5.08,0,0,1-.34,1.84,4.25,4.25,0,0,0-.15,2.16A3.72,3.72,0,0,1,5.88,18.14Z"/><path class="cls-2" d="M14.12,10.17c-.39,1.81-.77,3.61-1.17,5.41-.13.56-.42,1.06-1.09.84s-.45-.83-.32-1.28c.5-1.81,1.05-3.61,1.58-5.41C13.64,9.46,14.12,9.26,14.12,10.17Z"/><path class="cls-2" d="M14.12,10.17c-.12-.64-.62-.39-1-.44,0-.49.32-.78.6-1.1s.52-.69.2-1.15-.74-.2-1.12,0l-.28.1a.54.54,0,0,1-.45-.45,9,9,0,0,1,1.12-1.62A1.15,1.15,0,0,1,14.5,5a1.29,1.29,0,0,1,.78,1.26A5.43,5.43,0,0,1,14.12,10.17Z"/><path class="cls-4" d="M22.25,37.81c-.26.78-.17,1.8-1.27,2-.29.06-.37.12-.32.44.21,1.25-1.17,1.49-1.55,2.38-.07.16-.32,0-.42-.09a1,1,0,0,1-.31-1.08C19,40,20.3,39,21.28,37.7a.75.75,0,0,1,.83-.22C22.25,37.52,22.3,37.65,22.25,37.81Z"/><path class="cls-4" d="M29,20.83A11.29,11.29,0,0,0,31.27,25c.26.36.48.65,0,1s-.95.66-1.29.07a10,10,0,0,1-1.72-3.65A1.28,1.28,0,0,1,29,20.83Z"/><path class="cls-2" d="M12.07,7.11a.86.86,0,0,1,.45.45c-.48.91-.92,1.85-1.44,2.73A3,3,0,0,1,8.4,11.93,16.87,16.87,0,0,1,12.07,7.11Z"/><path class="cls-5" d="M4.62,37.05C6.25,38.73,8.37,40,9.24,42.3,7.43,40.79,5.37,39.5,4.62,37.05Z"/><path class="cls-4" d="M27.28,41.14a1,1,0,0,1-1.11.7,3.7,3.7,0,0,1-2.46-2.39c0-.24-.18-.77.36-.45,1,.59,1.85,1.51,3,1.84C27.19,40.87,27.23,41.05,27.28,41.14Z"/><path class="cls-2" d="M38.26,18.51l-1-1.41c.77-.87,1.55-1.73,2.44-2.71a2.42,2.42,0,0,1-.57,2.17A3.39,3.39,0,0,0,38.26,18.51Z"/><path class="cls-5" d="M8.65,5.25c.14.8-.39,1.27-.92,1.7A5.48,5.48,0,0,0,6.27,8.41c-.2.34-.61.61-.91.37s.06-.63.27-.88C6.51,6.93,7.42,6,8.32,5Z"/><path class="cls-4" d="M20.79,30.78l3.12-2.38C23.77,30.18,22.84,30.94,20.79,30.78Z"/></g></g></svg>