<svg xmlns="http://www.w3.org/2000/svg" viewBox="0 0 500 500"><defs><style>.cls-1{fill:#2d734d;}.cls-2{fill:#61b461;}.cls-3{fill:#2f2852;}.cls-4{fill:#6fb8d5;}.cls-5{fill:#b3c4bd;}</style></defs><title>safari-pinned-tab</title><g id="Modo_de_aislamiento" data-name="Modo de aislamiento"><g id="IMAGO"><path class="cls-1" d="M455.26,257.57c0,96.61-67.34,178-156.62,212.6-93.92,35.55-160.73,3.34-188.18-19.82,69.21,29.13,138.4,27.93,206.33-2.8,5.43-2.46,3.52-5.31,1.83-8.67,7.48-8.74,16.69-15.19,26.9-20.32,34.35-29.49,60.25-56.28,76.78-96.92A81.59,81.59,0,0,0,428,298.9c5.35-53.79-6.55-100.43-12.85-127.21C364.59,73.85,302.55-1.31,120,48.48,244.09-37.11,455.26,51.18,455.26,257.57Z"/><path class="cls-2" d="M345.53,418.56c-7.8,8.33-17.07,14.7-26.91,20.32-6.93-2.89-11.49,1.62-16.34,5.22-6.93,5.13-13.66,10.73-25,10.88,8.17-9.58,13.26-19.18,21.45-26.48,44.77-39.84,66.27-88.68,59.75-149.39-1.37-12.79-2.16-24.64-10.72-34.8-2.24-2.67-2.59-6.17-2-9.72,21.87,9.91,26.14,15,30.58,36.55,2.22,1.66.89,4.27,1.67,6.31Q394.55,351.25,348.2,411C346.69,413,341.4,414.34,345.53,418.56Z"/><path class="cls-2" d="M378,277.45c-2.2-1.67-1.74-4-1.67-6.31a216,216,0,0,0,1.06-54.3c-.67-6.92-5.89-10.49-12.9-10.59a75.49,75.49,0,0,0-25,3.5c-13.2,4.34-26.42,8.58-39.86-.42-5.1-3.41-11.86-2.18-17.93-2.51C255.62,205.4,238.61,182.31,245,157c.85-3.39,1.54-7.24,5.18-8.14,7.66-1.88,11.94-4.76,8.5-13.73-1.14-3,2.08-4.72,5.36-3.31,23,10,46.05,19.89,69,30,3.25,1.43,3.58,5.36,2.88,8-.74,2.86-4.06,1.28-6.19,1.09-12.83-1.14-25.69-2-38.43-3.82a59.24,59.24,0,0,1-30.33-13.56c-8.82,23.83,7.44,46.4,34.29,48.29,22.64,1.6,44.69-.69,65.63-10.31,5.52-2.54,11.5-4.05,17.26-6,8.3,1.32,7.24,9.39,10.41,14.41C391.44,226.69,395.12,253.49,378,277.45Z"/><path class="cls-2" d="M94.85,221.33C54.19,274.82,74,378.15,132.72,423.59c8.05,6.23,16.32,12.22,24.92,17.65,4.87,3.06,5.53,6.79,3.49,11.12-2.4,5.09-6.42,2.54-9.48.65C90.44,415.14,56,374.39,58.49,296,59.43,266.35,69.2,239.55,94.85,221.33Z"/><path class="cls-3" d="M119.33,200.83c9.48-4.86,17.87-1,26.19-.71,13.44.53,15.47-.72,19.15-13.53a24.71,24.71,0,0,1,6.94-11c13.61-13.36,12-20.46-5.84-27.85-1.69-.7-4-.48-5.8-4.88,8.91,0,16.85-.17,24.78,0,10.13.27,18.23-2.95,21.71-13.1,1.75-5.09,4.12-4.18,7.57-2.33,20.29,10.94,24.26,6.4,20.75-15.89-1.26-8,1.48-14.53,4.28-21.47,3.17-7.84,5.8-15.9,8.7-23.85,1.76-4.86,6-6.24,9.85-4.39,4.05,2,.5,5.47-.65,7.82-8.39,17-11.95,35.19-13.31,53.93-1,13.9-6.46,19.78-20.31,20.19-8.42.24-12.68,3.91-17.64,10.69-13,17.76-27.63,34.37-41.92,51.18-7,8.25-16.32,9.08-26.07,5.69C131.3,209.16,125.64,205.45,119.33,200.83Z"/><path class="cls-4" d="M304.59,295.13c-8.93,19.56-16,40.25-27.27,58.4-12.63,20.43-35.21,21.92-56.54,19.22-18.92-2.39-30.37-15.12-34.73-33.95-1.34-5.76-4-11.19-10.71-12.28-23.3-3.77-33.25-20.08-38.74-40.71a36.32,36.32,0,0,1-1.67-11.39c5.33,7.35,10.64,14.73,16,22.07,8.43,11.55,19.12,20.23,32.85,24.53,6.63,2.08,10.41,5.82,11.15,12.77.83,7.94,2.69,13.79,13.27,13.92,6.65.08,13.26,4.66,19.88,7.25,19.83,7.76,34.93,2.41,45.08-16.48,4.33-8.05,7.94-16.5,11.81-24.8C288.92,305.22,295.29,299.12,304.59,295.13Z"/><path class="cls-2" d="M276.52,53.85c11.72,6.63,14.93,14.5,11.46,28.29-1.39,5.53-3.86,10.84-6.31,16-2.23,4.76-7.43,9.7-.66,14,6.38,4.09,13.36,8.93,21.54,3,3.26-2.34,5.14-8.25,10.77-5,3.65,2.1,4.22,5.9,3.83,9.85-.6,6.15-4.95,8.6-10.13,9.92-14.73,3.76-28.91,4.51-40.74-7.69-6.92-7.14-7.9-14.77-2.38-23,2.64-3.93,5.79-7.51,8.75-11.22C281,77.7,283.69,66.58,276.52,53.85Z"/><path class="cls-2" d="M57.72,196.19c-13.92-24-11.19-73.5,5.75-94,5.43-6.58,13.84-10.75,22.06-13.88,4.17-1.58,9.15.22,10.37,4.17,1.6,5.13-4.48,3.89-7,4.9-16.2,6.6-22.69,15.08-23,32.26a51.79,51.79,0,0,1-3.42,18.74c-2.73,6.9-2.72,14.5-1.55,22.09C62.74,181.85,62,185.73,57.72,196.19Z"/><path class="cls-2" d="M141.91,114.81c-4,18.44-7.88,36.89-12,55.3-1.28,5.73-4.29,10.81-11.14,8.55s-4.52-8.47-3.25-13c5.13-18.51,10.74-36.89,16.17-55.32C137,107.53,141.93,105.52,141.91,114.81Z"/><path class="cls-2" d="M141.91,114.81c-1.19-6.54-6.36-4-10.23-4.5-.25-5,3.29-8,6.09-11.26,3-3.58,5.4-7,2.07-11.71-3.8-5.39-7.6-2-11.47-.22-.91.42-1.9.69-2.85,1A5.48,5.48,0,0,1,121,83.58c3.43-5.8,6.73-11.69,11.43-16.63,3.67-3.87,7.63-6.84,13.34-4.64,5.87,2.25,7.53,7,8,12.84C155.05,90,150.76,103.05,141.91,114.81Z"/><path class="cls-4" d="M225,397.21c-2.72,7.92-1.77,18.35-13,20.84-2.94.66-3.82,1.27-3.28,4.49,2.16,12.75-12,15.25-15.85,24.36-.68,1.58-3.24.45-4.3-.93-2.49-3.21-4.9-6.56-3.11-11,6.27-15.71,19.59-26.07,29.66-38.89a7.75,7.75,0,0,1,8.44-2.22C225,394.26,225.46,395.62,225,397.21Z"/><path class="cls-4" d="M293.72,223.69c3.92,16.34,13.69,29.25,23.36,42.17,2.68,3.58,5,6.55,0,10-4.34,3-9.69,6.72-13.13.71-6.81-11.89-15.86-22.91-17.54-37.24C285.67,232.94,286.37,227.1,293.72,223.69Z"/><path class="cls-2" d="M121,83.58a8.39,8.39,0,0,1,4.55,4.57c-4.88,9.31-9.37,18.85-14.73,27.88-5.74,9.67-13.81,16.35-27.37,16.72C94.51,114,104.77,96.59,121,83.58Z"/><path class="cls-5" d="M44.86,389.46C61.43,406.59,83.17,419.2,92,443.06,73.54,427.64,52.49,414.52,44.86,389.46Z"/><path class="cls-4" d="M276.37,431.21c-2.2,5.57-6.19,7.82-11.36,7.22-9.35-1.1-23.58-15-25.17-24.45-.42-2.49-1.79-7.86,3.76-4.64,10.44,6.05,18.85,15.46,31,18.87C275.45,428.45,275.86,430.29,276.37,431.21Z"/><path class="cls-2" d="M388.5,200l-10.41-14.41L403,157.88c2.23,10.09-1.41,16.31-5.77,22.23S388.6,192.13,388.5,200Z"/><path class="cls-5" d="M86,64.55c1.42,8.12-4,13-9.46,17.35s-11.2,8.62-14.92,14.95c-2,3.39-6.24,6.16-9.23,3.76-4.12-3.3.53-6.5,2.75-9,9-10,18.25-19.77,27.4-29.63Z"/><path class="cls-4" d="M210,325.43,242,301C240.53,319.21,231,327,210,325.43Z"/></g></g></svg>