<svg xmlns="http://www.w3.org/2000/svg" viewBox="0 0 903 752"><defs><style>.cls-1{fill:#2d734d;}.cls-2{fill:#61b461;}.cls-3{fill:#2f2852;}.cls-4{fill:#6fb8d5;}.cls-5{fill:#b3c4bd;}</style></defs><title>faviconprotegemos</title><g id="Modo_de_aislamiento" data-name="Modo de aislamiento"><g id="IMAGO"><path class="cls-1" d="M808.41,392.69c0,149.85-104.44,276.15-242.92,329.76-145.67,55.14-249.3,5.18-291.88-30.74,107.35,45.17,214.67,43.32,320-4.35,8.42-3.81,5.46-8.23,2.83-13.45,11.6-13.55,25.89-23.56,41.73-31.51,53.28-45.74,93.45-87.3,119.09-150.33a127.19,127.19,0,0,0,8.8-35.28c8.28-83.42-10.17-155.77-19.94-197.31C667.78,107.72,571.55-8.86,288.36,68.38,480.88-64.37,808.41,72.56,808.41,392.69Z"/><path class="cls-2" d="M638.22,642.39c-12.1,12.92-26.48,22.8-41.75,31.52-10.74-4.48-17.81,2.52-25.33,8.1-10.75,8-21.18,16.64-38.76,16.87,12.67-14.85,20.56-29.75,33.27-41.06C635.09,596,668.44,520.27,658.33,426.1c-2.13-19.84-3.35-38.22-16.63-54-3.48-4.13-4-9.56-3.18-15.08,33.94,15.38,40.56,23.33,47.44,56.69,3.44,2.59,1.38,6.63,2.6,9.8Q714.27,538,642.36,630.69C640,633.71,631.81,635.85,638.22,642.39Z"/><path class="cls-2" d="M688.56,423.53c-3.41-2.59-2.7-6.27-2.6-9.79,4.36-28,4.37-56.15,1.65-84.22-1-10.74-9.14-16.28-20-16.43-13.17-.18-26,1.24-38.77,5.43-20.46,6.73-41,13.31-61.81-.65-7.91-5.3-18.4-3.38-27.82-3.9-40.44-2.2-66.81-38-57-77.22,1.32-5.27,2.39-11.24,8.05-12.63,11.87-2.91,18.5-7.38,13.17-21.3-1.77-4.61,3.23-7.32,8.32-5.13,35.71,15.44,71.43,30.85,107,46.56,5,2.23,5.55,8.32,4.46,12.5-1.14,4.42-6.3,2-9.6,1.68-19.89-1.76-39.84-3.18-59.61-5.93a91.88,91.88,0,0,1-47-21c-13.69,37,11.53,72,53.18,74.9,35.11,2.47,69.31-1.08,101.8-16,8.55-3.92,17.83-6.26,26.77-9.33,12.86,2,11.22,14.57,16.14,22.36C709.43,344.8,715.14,386.36,688.56,423.53Z"/><path class="cls-2" d="M249.4,336.47c-63.06,83-32.29,243.25,58.75,313.73,12.47,9.65,25.31,19,38.64,27.37,7.55,4.76,8.59,10.54,5.42,17.25-3.73,7.9-10,3.94-14.71,1C242.56,637.08,189.15,573.89,193,452.37,194.47,406.31,209.61,364.74,249.4,336.47Z"/><path class="cls-3" d="M287.37,304.68c14.7-7.54,27.71-1.6,40.62-1.1,20.84.82,24-1.11,29.71-21,1.93-6.74,5.69-12,10.76-17,21.11-20.73,18.64-31.74-9.06-43.21-2.62-1.08-6.24-.74-9-7.57,13.82,0,26.13-.26,38.43.07,15.72.42,28.27-4.57,33.68-20.31,2.7-7.9,6.39-6.5,11.73-3.62,31.48,17,37.64,9.93,32.19-24.64-2-12.43,2.3-22.55,6.64-33.31,4.91-12.16,9-24.65,13.49-37,2.73-7.53,9.31-9.67,15.28-6.81,6.28,3,.78,8.48-1,12.12-13,26.42-18.53,54.59-20.65,83.66-1.57,21.55-10,30.67-31.49,31.31-13.06.38-19.66,6.07-27.37,16.58-20.19,27.55-42.85,53.32-65,79.38-10.89,12.8-25.3,14.09-40.43,8.83C305.93,317.6,297.15,311.85,287.37,304.68Z"/><path class="cls-4" d="M574.72,450.94c-13.85,30.35-24.89,62.43-42.29,90.58-19.6,31.7-54.63,34-87.71,29.83-29.33-3.71-47.09-23.46-53.86-52.66-2.08-9-6.21-17.37-16.61-19.05-36.15-5.85-51.57-31.15-60.09-63.14-1.46-5.52-2.89-11.05-2.59-17.68,8.27,11.41,16.5,22.85,24.81,34.24,13.07,17.91,29.66,31.38,51,38.05,10.28,3.22,16.15,9,17.28,19.81,1.3,12.31,4.19,21.38,20.59,21.58,10.32.13,20.57,7.23,30.84,11.25,30.75,12,54.17,3.73,69.92-25.56,6.72-12.49,12.31-25.59,18.31-38.46C550.41,466.59,560.3,457.13,574.72,450.94Z"/><path class="cls-2" d="M531.19,76.7C549.36,87,554.34,99.21,549,120.58c-2.16,8.58-6,16.82-9.78,24.88-3.47,7.37-11.54,15-1,21.78,9.9,6.34,20.72,13.85,33.4,4.74,5.06-3.64,8-12.8,16.72-7.75,5.65,3.27,6.53,9.16,5.93,15.28-.93,9.54-7.68,13.35-15.71,15.39-22.85,5.82-44.84,7-63.19-11.93-10.74-11.08-12.26-22.91-3.7-35.65,4.1-6.09,9-11.65,13.58-17.4C538.12,113.69,542.3,96.45,531.19,76.7Z"/><path class="cls-2" d="M191.81,297.49c-21.6-37.26-17.36-114,8.91-145.81,8.43-10.19,21.47-16.66,34.23-21.52,6.46-2.45,14.18.34,16.08,6.47,2.47,8-6.94,6-10.79,7.59-25.12,10.24-35.19,23.39-35.67,50.05-.18,10.09-1.49,19.43-5.3,29.06-4.24,10.7-4.23,22.5-2.41,34.26C199.6,275.24,198.47,281.27,191.81,297.49Z"/><path class="cls-2" d="M322.39,171.25c-6.18,28.6-12.22,57.24-18.62,85.79-2,8.89-6.66,16.75-17.28,13.26s-7-13.14-5.05-20.22c8-28.71,16.66-57.21,25.09-85.79C314.74,160,322.42,156.85,322.39,171.25Z"/><path class="cls-2" d="M322.39,171.25c-1.85-10.14-9.86-6.26-15.86-7-.4-7.73,5.1-12.37,9.44-17.48,4.69-5.54,8.37-10.86,3.22-18.15-5.9-8.36-11.8-3.14-17.79-.36-1.42.66-2.95,1.08-4.43,1.61-3.8-.92-6.33-3.1-7.05-7.08,5.31-9,10.44-18.14,17.72-25.81,5.69-6,11.83-10.6,20.7-7.2,9.1,3.5,11.68,10.88,12.45,19.92C342.77,132.76,336.12,153,322.39,171.25Z"/><path class="cls-4" d="M451.28,609.28c-4.22,12.29-2.74,28.46-20.21,32.33-4.55,1-5.92,2-5.07,7,3.34,19.77-18.57,23.66-24.6,37.78-1,2.45-5,.7-6.67-1.43-3.86-5-7.59-10.19-4.82-17.12,9.73-24.36,30.39-40.43,46-60.32,2.91-3.71,8.14-4.94,13.09-3.45C451.21,604.7,452,606.81,451.28,609.28Z"/><path class="cls-4" d="M557.86,340.14c6.09,25.35,21.24,45.37,36.24,65.41,4.16,5.56,7.74,10.16,0,15.47-6.73,4.62-15,10.42-20.37,1.09-10.55-18.44-24.6-35.53-27.21-57.76C545.37,354.49,546.46,345.43,557.86,340.14Z"/><path class="cls-2" d="M289.92,122.83a13,13,0,0,1,7.05,7.08c-7.56,14.45-14.53,29.24-22.84,43.24-8.9,15-21.42,25.37-42.45,25.94C248.87,170.06,264.79,143,289.92,122.83Z"/><path class="cls-5" d="M171.86,597.26c25.71,26.56,59.43,46.12,73.16,83.13C216.34,656.48,183.69,636.13,171.86,597.26Z"/><path class="cls-4" d="M531,662c-3.42,8.64-9.6,12.14-17.63,11.2-14.49-1.71-36.56-23.28-39-37.91-.65-3.88-2.79-12.2,5.82-7.21,16.2,9.39,29.24,24,48.06,29.27C529.52,657.73,530.15,660.6,531,662Z"/><path class="cls-2" d="M704.87,303.4,688.73,281l38.67-43c3.44,15.64-2.2,25.3-9,34.47S705,291.19,704.87,303.4Z"/><path class="cls-5" d="M235.74,93.31c2.2,12.59-6.18,20.1-14.68,26.91s-17.37,13.37-23.14,23.18c-3.1,5.27-9.67,9.55-14.32,5.83-6.39-5.11.82-10.07,4.27-13.89,14-15.5,28.3-30.67,42.5-46Z"/><path class="cls-4" d="M428.05,498l49.53-37.85C475.36,488.3,460.58,500.4,428.05,498Z"/></g></g></svg>