<svg xmlns="http://www.w3.org/2000/svg" viewBox="0 0 405.94 233.26"><defs><style>.cls-1{font-size:43.18px;letter-spacing:-0.04em;}.cls-1,.cls-3{fill:#2a774d;}.cls-1,.cls-2,.cls-9{font-family:PointPantherDEMO-Bold, Point Panther DEMO;font-weight:700;}.cls-2{font-size:22.87px;}.cls-2,.cls-6,.cls-9{fill:#2f2852;}.cls-4{fill:#2d734d;}.cls-5{fill:#61b461;}.cls-7{fill:#6fb8d5;}.cls-8{fill:#b3c4bd;}.cls-9{font-size:20.77px;letter-spacing:-0.08em;}.cls-10{letter-spacing:-0.04em;}</style></defs><title>logo-dark</title><g id="logo_full_color" data-name="logo full color"><g id="logo"><text class="cls-1" transform="translate(3.52 172.65)">pROTEGEMOS G.C.U</text><text class="cls-2" transform="translate(3.92 127.66)">GRUPO</text><path class="cls-3" d="M405,137.63v.6s0,.07,0,.1c0,.22,0,.44-.09.65a5.13,5.13,0,0,1-10.13-1.57,4.89,4.89,0,0,1,1.25-2.87,5,5,0,0,1,3-1.67l.58-.08h.6l.08,0a4.79,4.79,0,0,1,1.79.46,5.09,5.09,0,0,1,2.89,3.76C405,137.23,405,137.43,405,137.63Zm-5.13-3.42a3.72,3.72,0,1,0,3.71,3.72A3.73,3.73,0,0,0,399.87,134.21Z"/><path class="cls-3" d="M401.37,138.64l1.16,1.59h-1.14a.14.14,0,0,1-.14-.07L400.4,139a.15.15,0,0,0-.16-.08h-.77v1.3h-1v-4.68h1.87a1.9,1.9,0,0,1,1,.26,1.5,1.5,0,0,1,.76,1.29,1.64,1.64,0,0,1-.7,1.52Zm-1.9-.69a9.46,9.46,0,0,0,1.07-.06c.5-.07.62-.42.55-.85a.57.57,0,0,0-.55-.47c-.35,0-.7,0-1.05,0h0Z"/><g id="IMAGO"><path class="cls-4" d="M246.39,81c0,22.45-15.64,41.37-36.39,49.4-21.82,8.26-37.34.77-43.72-4.61,16.08,6.77,32.16,6.49,47.94-.65,1.26-.57.82-1.23.42-2a19.78,19.78,0,0,1,6.26-4.73c8-6.85,14-13.07,17.84-22.51a19.35,19.35,0,0,0,1.31-5.29c1.25-12.5-1.52-23.34-3-29.56-11.74-22.73-26.16-40.2-68.58-28.63C197.33,12.5,246.39,33,246.39,81Z"/><path class="cls-5" d="M220.9,118.37a26.06,26.06,0,0,1-6.26,4.73c-1.61-.68-2.66.37-3.79,1.21-1.61,1.19-3.17,2.49-5.81,2.53,1.9-2.23,3.08-4.46,5-6.15,10.4-9.26,15.4-20.61,13.88-34.72-.32-3-.5-5.72-2.49-8.08a2.79,2.79,0,0,1-.48-2.26c5.09,2.3,6.08,3.49,7.11,8.49.51.39.21,1,.39,1.47a35.57,35.57,0,0,1-6.92,31C221.17,117.07,219.94,117.39,220.9,118.37Z"/><path class="cls-5" d="M228.44,85.59c-.51-.39-.41-.94-.39-1.47a50.77,50.77,0,0,0,.25-12.62,2.73,2.73,0,0,0-3-2.46,17.72,17.72,0,0,0-5.81.82c-3.06,1-6.14,2-9.26-.1-1.18-.8-2.76-.51-4.17-.59a9.11,9.11,0,0,1-8.53-11.56c.19-.79.35-1.69,1.2-1.9,1.78-.43,2.77-1.1,2-3.19-.26-.69.49-1.09,1.25-.77,5.35,2.32,10.7,4.63,16,7a1.55,1.55,0,0,1,.67,1.87c-.17.66-.94.3-1.44.25-3-.26-6-.47-8.93-.88a13.84,13.84,0,0,1-7-3.15c-2.05,5.53,1.72,10.78,8,11.22a30.58,30.58,0,0,0,15.25-2.4,42.22,42.22,0,0,1,4-1.4c1.93.31,1.69,2.18,2.42,3.35C231.57,73.79,232.42,80,228.44,85.59Z"/><path class="cls-5" d="M162.65,72.55c-9.45,12.43-4.84,36.44,8.8,47,1.87,1.45,3.79,2.84,5.79,4.1a1.81,1.81,0,0,1,.81,2.59c-.56,1.18-1.49.59-2.2.15-14.23-8.8-22.23-18.27-21.65-36.47C154.42,83,156.69,76.78,162.65,72.55Z"/><path class="cls-6" d="M168.34,67.78c2.2-1.13,4.15-.24,6.08-.16,3.13.12,3.6-.17,4.45-3.15a5.77,5.77,0,0,1,1.62-2.55c3.16-3.1,2.79-4.75-1.36-6.47a1.63,1.63,0,0,1-1.35-1.13c2.07,0,3.92,0,5.76,0,2.35.06,4.23-.69,5-3,.41-1.18,1-1,1.76-.54,4.72,2.54,5.64,1.49,4.82-3.69a9.07,9.07,0,0,1,1-5c.73-1.82,1.35-3.69,2-5.54a1.59,1.59,0,0,1,2.29-1c.94.45.12,1.27-.15,1.81a33.45,33.45,0,0,0-3.1,12.54c-.23,3.23-1.5,4.59-4.71,4.69-2,.05-2.95.91-4.1,2.48-3,4.13-6.42,8-9.74,11.89-1.64,1.92-3.8,2.11-6.06,1.33A16.25,16.25,0,0,1,168.34,67.78Z"/><path class="cls-7" d="M211.38,89.69c-2.07,4.55-3.72,9.36-6.33,13.57-2.94,4.75-8.18,5.1-13.14,4.47-4.39-.55-7.06-3.51-8.07-7.89-.31-1.34-.93-2.6-2.49-2.85-5.41-.88-7.72-4.67-9-9.46a8.57,8.57,0,0,1-.39-2.65c1.24,1.71,2.47,3.42,3.72,5.13a14.91,14.91,0,0,0,7.63,5.7,3.24,3.24,0,0,1,2.59,3c.2,1.84.63,3.2,3.09,3.23,1.54,0,3.08,1.08,4.62,1.69,4.6,1.8,8.11.56,10.47-3.83,1-1.87,1.85-3.84,2.75-5.76A8.46,8.46,0,0,1,211.38,89.69Z"/><path class="cls-5" d="M204.86,33.63c2.73,1.54,3.47,3.37,2.67,6.57a21.26,21.26,0,0,1-1.47,3.73c-.52,1.1-1.73,2.25-.15,3.26s3.1,2.08,5,.71c.76-.54,1.2-1.91,2.5-1.16A2.14,2.14,0,0,1,214.3,49c-.14,1.43-1.15,2-2.35,2.31-3.42.87-6.72,1-9.47-1.79a3.86,3.86,0,0,1-.55-5.34c.61-.91,1.35-1.75,2-2.61C205.9,39.17,206.53,36.59,204.86,33.63Z"/><path class="cls-5" d="M154,66.7c-3.23-5.58-2.6-17.07,1.34-21.84a12.11,12.11,0,0,1,5.12-3.22,1.82,1.82,0,0,1,2.41,1c.37,1.19-1,.9-1.61,1.13-3.77,1.54-5.27,3.51-5.35,7.5a12,12,0,0,1-.79,4.36,9.76,9.76,0,0,0-.36,5.13A8.74,8.74,0,0,1,154,66.7Z"/><path class="cls-5" d="M173.58,47.79c-.92,4.29-1.83,8.58-2.79,12.85-.29,1.34-1,2.52-2.58,2s-1.05-2-.76-3c1.19-4.3,2.5-8.57,3.76-12.85C172.44,46.1,173.59,45.64,173.58,47.79Z"/><path class="cls-5" d="M173.58,47.79c-.27-1.52-1.47-.93-2.37-1-.06-1.16.76-1.85,1.41-2.62s1.26-1.62.48-2.72-1.76-.47-2.66,0c-.21.1-.44.16-.66.24a1.27,1.27,0,0,1-1.06-1.06,20.88,20.88,0,0,1,2.65-3.87c.86-.89,1.78-1.58,3.1-1.07s1.75,1.62,1.87,3A13,13,0,0,1,173.58,47.79Z"/><path class="cls-7" d="M192.89,113.41c-.63,1.84-.41,4.27-3,4.85-.69.15-.89.29-.77,1,.51,3-2.78,3.54-3.68,5.66-.16.37-.75.1-1-.21-.58-.75-1.14-1.53-.72-2.57,1.46-3.65,4.55-6.06,6.89-9a1.8,1.8,0,0,1,2-.51A.57.57,0,0,1,192.89,113.41Z"/><path class="cls-7" d="M208.86,73.09c.91,3.8,3.18,6.8,5.43,9.8.62.84,1.16,1.53,0,2.32-1,.69-2.25,1.56-3,.16-1.58-2.76-3.69-5.32-4.08-8.65C207,75.24,207.15,73.89,208.86,73.09Z"/><path class="cls-5" d="M168.72,40.54a2,2,0,0,1,1.06,1.06c-1.14,2.16-2.18,4.38-3.43,6.48A7.12,7.12,0,0,1,160,52C162.57,47.62,165,43.56,168.72,40.54Z"/><path class="cls-8" d="M151,111.61c3.85,4,8.91,6.91,11,12.46C157.7,120.49,152.81,117.44,151,111.61Z"/><path class="cls-7" d="M204.83,121.31a2.35,2.35,0,0,1-2.64,1.68c-2.17-.25-5.48-3.49-5.85-5.68-.1-.58-.42-1.83.87-1.08,2.43,1.41,4.38,3.59,7.2,4.39C204.61,120.67,204.71,121.1,204.83,121.31Z"/><path class="cls-5" d="M230.88,67.59c-.8-1.12-1.61-2.23-2.42-3.35l5.8-6.44A5.84,5.84,0,0,1,232.92,63,8,8,0,0,0,230.88,67.59Z"/><path class="cls-8" d="M160.6,36.12c.33,1.88-.92,3-2.2,4a13.13,13.13,0,0,0-3.46,3.47c-.47.79-1.45,1.43-2.15.87-1-.76.12-1.5.64-2.08,2.09-2.32,4.24-4.59,6.37-6.88Z"/><path class="cls-7" d="M189.41,96.74l7.42-5.67C196.5,95.29,194.29,97.1,189.41,96.74Z"/></g><path class="cls-6" d="M277.55,188.65a1.33,1.33,0,0,1,.06,2.66c-.77,0-270.41,0-270.57-.14a1.21,1.21,0,0,1,.1-2.07C7.33,189,276.62,188.67,277.55,188.65Z"/><text class="cls-9" transform="translate(284.73 196.27)">c<tspan class="cls-10" x="12.32" y="0">olombia</tspan></text></g></g></svg>